# xmcd
#
# Track frame offsets:
#	150
#	13174
#	24938
#	36075
#	47779
#	56850
#	70867
#	83995
#	98367
#	107896
#	115773
#	127708
#	140869
#	153509
#	163322
#	174430
#
# Disc length: 2470 seconds
#
# Revision: 3
# Processed by: cddbd v1.5.2PL0 Copyright (c) Steve Scherf et al.
# Submitted via: EasyCDDAExtractor 12.0.1.1
#
DISCID=d309a410
DTITLE=Jim Reeves - Distant drums
DYEAR=1993
DGENRE=Country
TTITLE0=Distant drums
TTITLE1=Welcome to my world
TTITLE2=Just walking in the rain
TTITLE3=Have you ever been lonely
TTITLE4=I won't forget you
TTITLE5=I fall to pieces
TTITLE6=The white cliffs of dover
TTITLE7=Guilty
TTITLE8=The Hawaiian wedding song
TTITLE9=You are my love
TTITLE10=In the misty moonlight
TTITLE11=You'll never know
TTITLE12=I can't stop loving you
TTITLE13=Somewhere along the line
TTITLE14=Someday
TTITLE15=How's the world treating you
EXTD=
EXTT0=
EXTT1=
EXTT2=
EXTT3=
EXTT4=
EXTT5=
EXTT6=
EXTT7=
EXTT8=
EXTT9=
EXTT10=
EXTT11=
EXTT12=
EXTT13=
EXTT14=
EXTT15=
PLAYORDER=
